<svg fill="#000000" xmlns="http://www.w3.org/2000/svg"  viewBox="0 0 50 50" width="50px" height="50px"><path d="M29.638.229c-.23-.19-.533-.268-.825-.212l-28 5.333C.341 5.44 0 5.853 0 6.333v37.334c0 .48.341.893.813.982l28 5.333C28.875 49.994 28.938 50 29 50c.23 0 .457-.08.638-.229C29.867 49.58 30 49.298 30 49V1C30 .702 29.867.419 29.638.229zM18.517 34.377L18.517 34.377l-3.221-6.088c-.122-.227-.248-.645-.378-1.252h-.052c-.061.287-.205.722-.431 1.304l-3.233 6.037h-5.02l5.959-9.349-5.45-9.35h5.125l2.673 5.607c.209.443.396.969.561 1.578h.05c.104-.365.3-.909.587-1.63l2.973-5.555h4.694l-5.607 9.271 5.764 9.427H18.517zM47 6H32v7h2v2h-2v5h2v2h-2v5h2v2h-2v6h2v2h-2v7h15c1.103 0 2-.897 2-2V8C49 6.897 48.103 6 47 6zM44 37h-8v-2h8V37zM44 29h-8v-2h8V29zM44 22h-8v-2h8V22zM44 15h-8v-2h8V15z"/></svg>