<svg fill="#000000" xmlns="http://www.w3.org/2000/svg"  viewBox="0 0 50 50" width="50px" height="50px"><path d="M28.5,21H27v3h1.5c0.8,0,1.5-0.7,1.5-1.5S29.3,21,28.5,21z"/><path d="M1,12v24h25l24-24H1z M28.5,27H27v3h-2h-1h-2.5l-0.6-1.8c-0.7,0.3-1.5,0.5-2.4,0.5s-1.7-0.2-2.4-0.5L15.5,30H12l0.5-1.2c-0.9,0.7-2.3,1.2-4.1,1.2C5.1,30,4,29.1,4,29.1l0.8-2.6c1.9,1.2,5.3,1,5.3,0s-1.5-1.1-3.5-1.7C4.7,24.2,4,22.7,4,21.4C4,20.1,5,18,8.4,18c3.4,0,4.5,0.8,4.5,0.8s-0.6,1.5-0.9,2.3c-1-0.4-5-1.1-5,0.4c0,0.6,0.2,1,3.2,1.7c1.2,0.3,3,0.9,3.4,2.7l3.1-7.9h3.5l3.8,9.5V27v-2v-7h4.5c2.5,0,4.5,2,4.5,4.5S31,27,28.5,27z"/><path d="M17,25.7c0.4,0.3,0.9,0.4,1.5,0.4s1.1-0.1,1.5-0.4l-1.5-4.3L17,25.7z"/></svg>